<svg width="48" height="48" viewBox="0 0 48 48" fill="none" xmlns="http://www.w3.org/2000/svg">
<path d="M24 0C10.7736 0 0 10.7736 0 24C0 37.2264 10.7736 48 24 48C37.2264 48 48 37.2264 48 24C48 10.7736 37.2264 0 24 0ZM24 4.8C34.6323 4.8 43.2 13.3677 43.2 24C43.2 33.6347 36.1568 41.5512 26.925 42.9563V29.7234H32.5125L33.3891 24.0469H26.925V20.9437C26.925 18.5845 27.6936 16.4906 29.9016 16.4906H33.4453V11.5359C32.8213 11.4519 31.5044 11.2688 29.0156 11.2688C23.8172 11.2688 20.7703 14.0143 20.7703 20.2687V24.0469H15.4266V29.7234H20.7703V42.9094C11.6887 41.378 4.8 33.5286 4.8 24C4.8 13.3677 13.3677 4.8 24 4.8Z" fill="black"/>
</svg>
