<svg width="48" height="48" viewBox="0 0 48 48" fill="none" xmlns="http://www.w3.org/2000/svg">
<g clip-path="url(#clip0_27_62)">
<path d="M24 0.346191C10.9399 0.346191 0.34613 10.9399 0.34613 24C0.34613 37.0601 10.9399 47.6539 24 47.6539C37.0601 47.6539 47.6538 37.0601 47.6538 24C47.6538 10.9399 37.0601 0.346191 24 0.346191ZM24 4.0385C35.0048 4.0385 43.9615 12.9952 43.9615 24C43.9615 24.8654 43.8966 25.702 43.7884 26.5385C43.4206 26.4447 42.2668 26.1491 41.0192 26.1347C39.9014 26.1202 38.5601 26.3077 37.8461 26.4231C38.0336 25.6587 38.1923 24.8438 38.1923 24C38.1923 21.8943 37.399 19.8462 36 18.1154C36.5192 16.4856 37.2404 12.7789 35.8269 11.3654C32.3654 11.3654 30.4182 13.5649 30.0577 14.0193C28.4711 13.4423 26.7548 13.1539 24.9231 13.1539C23.1346 13.1539 21.4038 13.4135 19.8461 13.9616C19.363 13.3774 17.4519 11.3654 14.1346 11.3654C12.75 12.75 13.4423 16.3197 13.9615 18C12.4976 19.7597 11.6538 21.8438 11.6538 24C11.6538 24.7933 11.7187 25.5866 11.8846 26.3077C11.2788 26.2572 8.81969 26.077 7.84613 26.077C6.87257 26.077 5.27161 26.2861 4.21152 26.5385C4.10334 25.702 4.03844 24.8654 4.03844 24C4.03844 12.9952 12.9952 4.0385 24 4.0385ZM7.84613 26.5385C8.80526 26.5385 11.762 26.8053 12.0577 26.827C12.1082 27 12.1658 27.1731 12.2307 27.3462C11.2572 27.2669 9.17305 27.1298 7.84613 27.2885C6.22353 27.4832 5.02642 28.125 4.55767 28.3847C4.45671 27.9303 4.34132 27.4616 4.26921 27C5.28603 26.7621 6.94469 26.5385 7.84613 26.5385ZM41.0192 26.5962C42.2307 26.6106 43.4206 26.8702 43.7307 26.9423C43.7019 27.1515 43.6514 27.3678 43.6154 27.577C43.4567 27.5337 42.0144 27.0938 40.5 27.0577C39.7572 27.0361 38.5817 27.1587 37.6731 27.2308C37.7163 27.1154 37.7524 27 37.7884 26.8847C38.4158 26.7981 39.9086 26.5818 41.0192 26.5962ZM40.4423 27.5193C41.9134 27.5553 43.4711 28.0169 43.5577 28.0385C42.1947 34.6659 37.5432 40.0601 31.3846 42.5193V39.3462C31.3846 37.3486 30.1947 34.7524 28.5 33.4616C33.274 32.7765 36.2452 30.6635 37.5 27.6923C38.3582 27.6202 39.6706 27.4976 40.4423 27.5193ZM9.34613 27.6923C10.6658 27.6996 11.8485 27.7645 12.4038 27.8077C13.6875 30.714 16.637 32.7837 21.3461 33.4616C20.8125 33.8726 20.3149 34.4063 19.9038 35.0193C19.8894 35.0409 19.8606 35.0553 19.8461 35.077C18.9231 36.1875 17.1923 36.1154 15.5769 36.1154C13.9255 36.1154 12.9375 34.7957 12.0577 33.6347C11.1706 32.4808 10.0168 32.3798 9.40382 32.3077C8.79084 32.2428 8.62498 32.5529 8.94228 32.7693C10.738 34.0313 11.4447 35.5746 12.1731 36.9231C12.8293 38.1347 14.1779 38.7693 15.6923 38.7693H18.5192C18.4976 38.9568 18.4615 39.1659 18.4615 39.3462V43.1539C11.661 41.1923 6.39661 35.7404 4.67305 28.8462C5.03363 28.6443 6.30286 27.9375 7.90382 27.75C8.28603 27.7068 8.79805 27.6923 9.34613 27.6923ZM24.9231 38.7693C25.4351 38.7693 25.8461 39.1803 25.8461 39.6923V43.8462C25.2332 43.9039 24.6274 43.9616 24 43.9616V39.6923C24 39.1803 24.411 38.7693 24.9231 38.7693ZM21.2307 39.8654C21.7428 39.8654 22.1538 40.2765 22.1538 40.7885V43.8462C21.5408 43.7885 20.9062 43.7236 20.3077 43.6154V40.7885C20.3077 40.2765 20.7187 39.8654 21.2307 39.8654ZM28.6154 39.8654C29.1274 39.8654 29.5384 40.2765 29.5384 40.7885V43.1539C28.9327 43.327 28.3197 43.5 27.6923 43.6154V40.7885C27.6923 40.2765 28.1033 39.8654 28.6154 39.8654Z" fill="black"/>
</g>
<defs>
<clipPath id="clip0_27_62">
<rect width="48" height="48" fill="white"/>
</clipPath>
</defs>
</svg>
