<svg width="57" height="57" viewBox="0 0 57 57" fill="none" xmlns="http://www.w3.org/2000/svg">
<path d="M48.6875 28.5C48.6875 39.6625 39.6625 48.6875 28.5 48.6875C17.3375 48.6875 8.3125 39.6625 8.3125 28.5C8.3125 17.3375 17.3375 8.3125 28.5 8.3125C39.6625 8.3125 48.6875 17.3375 48.6875 28.5Z" fill="white"/>
<path d="M24.9375 48.6875V42.1563C24.9375 41.8 25.175 41.5625 25.5312 41.5625C25.8875 41.5625 26.125 41.8 26.125 42.1563V48.6875H28.5V40.9688C28.5 40.6125 28.7375 40.375 29.0937 40.375C29.45 40.375 29.6875 40.6125 29.6875 40.9688V48.6875H32.0625V42.1563C32.0625 41.8 32.3 41.5625 32.6562 41.5625C33.0125 41.5625 33.25 41.8 33.25 42.1563V48.6875H35.3875C35.625 48.3313 35.625 47.975 35.625 47.3813V42.75C35.625 40.1375 33.3687 36.575 30.5187 36.575H27.55C24.8188 36.575 22.4437 40.2563 22.4437 42.75V47.3813C22.4437 47.8563 22.5625 48.3313 22.6812 48.6875H24.9375ZM47.6187 31.35C47.6187 31.35 46.075 30.875 44.7687 30.875H44.65C43.3437 30.875 41.2062 31.2313 41.2062 31.2313C41.0875 31.2313 41.0875 31.2313 41.0875 31.1125C41.0875 30.9938 41.0875 30.9938 41.2062 30.9938C41.325 30.9938 43.5812 30.6375 44.8875 30.6375C46.1937 30.6375 47.7375 31.1125 47.8562 31.1125C47.975 31.1125 47.975 31.2313 47.975 31.35C47.7375 31.2313 47.7375 31.35 47.6187 31.35ZM47.2625 32.3C47.2625 32.3 45.6 31.825 44.175 31.825C43.1062 31.825 40.6125 32.0625 40.4937 32.0625C40.375 32.0625 40.375 32.0625 40.375 31.9438C40.375 31.825 40.375 31.825 40.4937 31.825C40.6125 31.825 43.1062 31.5875 44.175 31.5875C45.7187 31.5875 47.2625 32.0625 47.2625 32.0625C47.3812 32.0625 47.3813 32.1813 47.3813 32.3C47.3813 32.1813 47.3812 32.3 47.2625 32.3ZM9.2625 31.35C9.14375 31.35 9.14375 31.35 9.14375 31.2313C9.14375 31.1125 9.14375 31.1125 9.2625 30.9938C10.2125 30.7563 12.1125 30.4 13.1812 30.4C14.1312 30.4 17.3375 30.6375 17.4562 30.6375C17.575 30.6375 17.575 30.7563 17.575 30.7563C17.575 30.875 17.4562 30.875 17.4562 30.875C17.4562 30.875 14.25 30.6375 13.3 30.6375C11.9937 30.875 10.2125 31.1125 9.2625 31.35ZM9.7375 33.1313C9.7375 33.1313 9.61875 33.1313 9.61875 33.0125C9.61875 32.8938 9.61875 32.8938 9.61875 32.775C9.7375 32.775 11.2812 31.825 13.0625 31.5875C14.6062 31.35 17.8125 31.7063 18.05 31.7063C18.1687 31.7063 18.1687 31.825 18.1687 31.825C18.1687 31.9438 18.05 31.9438 18.05 31.9438C18.05 31.9438 14.725 31.5875 13.1812 31.825C11.4 32.1813 9.7375 33.1313 9.7375 33.1313Z" fill="#455A64"/>
<path d="M16.8625 27.9062C16.8625 22.6812 22.325 17.8125 29.0937 17.8125C35.8625 17.8125 41.325 22.5625 41.325 27.9062C41.325 33.25 37.4062 36.8125 29.0937 36.8125C20.7812 36.8125 16.8625 33.1313 16.8625 27.9062Z" fill="#455A64"/>
<path d="M33.9625 19.3562C33.9625 19.3562 35.9813 16.625 39.6625 16.625C41.0875 18.05 40.1375 22.325 39.6625 23.5125L33.9625 19.3562ZM24.225 19.3562C24.225 19.3562 22.2063 16.625 18.525 16.625C17.1 18.05 18.05 22.325 18.525 23.5125L24.225 19.3562ZM23.8688 42.6313C23.8688 42.6313 21.1375 42.6313 20.5437 42.6313C19.1187 42.6313 17.8125 42.0375 17.2188 40.85C16.5063 39.5438 15.9125 38.1188 14.1312 36.9313C13.775 36.6938 14.0125 36.4563 14.6063 36.4563C15.2 36.575 16.2687 36.6937 17.1 37.7625C17.9312 38.8312 18.8813 40.1375 20.425 40.1375C21.9688 40.1375 23.6313 40.1375 24.5813 39.0688L23.8688 42.6313Z" fill="#455A64"/>
<path d="M28.5 4.75C15.4375 4.75 4.75 15.4375 4.75 28.5C4.75 41.5625 15.4375 52.25 28.5 52.25C41.5625 52.25 52.25 41.5625 52.25 28.5C52.25 15.4375 41.5625 4.75 28.5 4.75ZM28.5 47.5C18.05 47.5 9.5 38.95 9.5 28.5C9.5 18.05 18.05 9.5 28.5 9.5C38.95 9.5 47.5 18.05 47.5 28.5C47.5 38.95 38.95 47.5 28.5 47.5Z" fill="#00BCD4"/>
</svg>
