<svg width="57" height="57" viewBox="0 0 57 57" fill="none" xmlns="http://www.w3.org/2000/svg">
<path d="M49.875 43.9375C49.875 47.2174 47.2174 49.875 43.9375 49.875H13.0625C9.78381 49.875 7.125 47.2174 7.125 43.9375V13.0625C7.125 9.78262 9.78381 7.125 13.0625 7.125H43.9375C47.2174 7.125 49.875 9.78262 49.875 13.0625V43.9375Z" fill="#0288D1"/>
<path d="M14.25 22.5625H20.1875V42.75H14.25V22.5625ZM17.2009 20.1875H17.1677C15.3959 20.1875 14.25 18.867 14.25 17.2176C14.25 15.5325 15.4316 14.25 17.2354 14.25C19.0416 14.25 20.1542 15.5325 20.1875 17.2176C20.1875 18.8658 19.0416 20.1875 17.2009 20.1875ZM42.75 42.75H36.8125V31.9449C36.8125 29.3348 35.3578 27.5536 33.022 27.5536C31.2396 27.5536 30.2753 28.7553 29.8074 29.9167C29.6364 30.3323 29.6875 31.4818 29.6875 32.0625V42.75H23.75V22.5625H29.6875V25.669C30.5437 24.3437 31.8844 22.5625 35.3139 22.5625C39.5628 22.5625 42.7488 25.2344 42.7488 31.2004L42.75 42.75Z" fill="white"/>
</svg>
