<svg width="48" height="48" viewBox="0 0 48 48" fill="none" xmlns="http://www.w3.org/2000/svg">
<path d="M13.44 3.83997C8.14912 3.83997 3.84 8.14909 3.84 13.44V34.56C3.84 39.8508 8.14912 44.16 13.44 44.16H34.56C39.8509 44.16 44.16 39.8508 44.16 34.56V13.44C44.16 8.14909 39.8509 3.83997 34.56 3.83997H13.44ZM12.48 15.36H35.52C35.6928 15.36 35.8558 15.3795 36.0094 15.4275L26.5725 24.855C25.1517 26.2758 22.8389 26.2758 21.4181 24.855L11.9906 15.4275C12.1442 15.3795 12.3072 15.36 12.48 15.36ZM10.6275 16.7906L17.8462 24L10.6275 31.2093C10.5795 31.0557 10.56 30.8928 10.56 30.72V17.28C10.56 17.1072 10.5795 16.9442 10.6275 16.7906ZM37.3725 16.7906C37.4205 16.9442 37.44 17.1072 37.44 17.28V30.72C37.44 30.8928 37.4205 31.0557 37.3725 31.2093L30.1444 24L37.3725 16.7906ZM19.2 25.3537L20.055 26.2181C21.1398 27.3029 22.5698 27.84 23.9906 27.84C25.421 27.84 26.8414 27.3029 27.9262 26.2181L28.7906 25.3537L36.0094 32.5725C35.8558 32.6205 35.6928 32.64 35.52 32.64H12.48C12.3072 32.64 12.1442 32.6205 11.9906 32.5725L19.2 25.3537Z" fill="black"/>
</svg>
