<svg width="57" height="57" viewBox="0 0 57 57" fill="none" xmlns="http://www.w3.org/2000/svg">
<path d="M40.375 49.875H16.625C11.3869 49.875 7.125 45.6131 7.125 40.375V16.625C7.125 11.3869 11.3869 7.125 16.625 7.125H40.375C45.6131 7.125 49.875 11.3869 49.875 16.625V40.375C49.875 45.6131 45.6131 49.875 40.375 49.875Z" fill="url(#paint0_linear_27_13)"/>
<path opacity="0.05" d="M40.375 19C40.5864 19 40.7871 19.0368 40.983 19.0879L31.692 28.3801C30.8109 29.26 29.6554 29.6994 28.5 29.6994C27.3446 29.6994 26.1891 29.26 25.308 28.3801L16.017 19.0879C16.2129 19.0368 16.4136 19 16.625 19H40.375ZM42.6621 20.767C42.7132 20.9629 42.75 21.1636 42.75 21.375V35.625C42.75 35.8364 42.7132 36.0371 42.6621 36.233L34.9291 28.5L42.6621 20.767ZM14.3379 20.767L22.0709 28.5L14.3391 36.2318C14.2868 36.0371 14.25 35.8364 14.25 35.625V21.375C14.25 21.1636 14.2868 20.9629 14.3379 20.767ZM33.2381 30.1672L40.983 37.9121C40.7871 37.9632 40.5864 38 40.375 38H16.625C16.4136 38 16.2129 37.9632 16.017 37.9121L23.7619 30.1672C25.0883 31.4296 26.79 32.0732 28.5 32.0732C30.21 32.0732 31.9117 31.4296 33.2381 30.1672ZM40.375 17.8125H16.625C16.3352 17.8125 16.0372 17.8541 15.713 17.9407C15.3021 18.05 14.9815 18.3694 14.8711 18.7803C14.7618 19.1852 14.8746 19.6163 15.1656 19.9156C14.9411 19.6982 14.6431 19.5795 14.3379 19.5795C14.2346 19.5795 14.1313 19.5926 14.0291 19.6199C13.6194 19.7303 13.2988 20.0509 13.1896 20.4618C13.1041 20.7872 13.0625 21.0852 13.0625 21.375V35.625C13.0625 35.9148 13.1041 36.2128 13.1907 36.537C13.3 36.9479 13.6194 37.2685 14.0303 37.3789C14.1324 37.4062 14.2357 37.4193 14.3391 37.4193C14.6442 37.4193 14.9423 37.3018 15.1656 37.0844C14.8746 37.3849 14.7618 37.8159 14.8711 38.2197C14.9815 38.6294 15.3021 38.95 15.713 39.0592C16.0372 39.1459 16.3352 39.1875 16.625 39.1875H40.375C40.6647 39.1875 40.9628 39.1459 41.287 39.0592C41.6979 38.95 42.0185 38.6306 42.1289 38.2197C42.2382 37.8148 42.1254 37.3837 41.8344 37.0844C42.0589 37.3018 42.3569 37.4193 42.6609 37.4193C42.7642 37.4193 42.8676 37.4062 42.9697 37.3789C43.3794 37.2685 43.7 36.9479 43.8092 36.537C43.8959 36.2128 43.9375 35.9148 43.9375 35.625V21.375C43.9375 21.0852 43.8959 20.7872 43.8092 20.463C43.7 20.0521 43.3806 19.7315 42.9697 19.6211C42.8676 19.5938 42.7642 19.5807 42.6609 19.5807C42.3557 19.5807 42.0577 19.6982 41.8332 19.9156C42.1242 19.6151 42.237 19.1841 42.1277 18.7803C42.0173 18.3706 41.6967 18.05 41.2858 17.9407C40.9628 17.8541 40.6647 17.8125 40.375 17.8125Z" fill="black"/>
<path opacity="0.07" d="M40.375 18.4062H16.625C16.3839 18.4062 16.1429 18.4407 15.865 18.5143C15.6596 18.5689 15.4992 18.7293 15.4446 18.9335C15.39 19.1389 15.4482 19.3574 15.5978 19.5071L24.8888 28.7992C25.8519 29.7623 27.1344 30.2931 28.5 30.2931C29.8656 30.2931 31.1481 29.7623 32.1112 28.8004L41.4022 19.5082C41.5518 19.3586 41.6112 19.1389 41.5554 18.9347C41.5008 18.7292 41.3393 18.5701 41.135 18.5155C40.8571 18.4407 40.6161 18.4062 40.375 18.4062ZM42.6621 20.1733C42.5066 20.1733 42.3546 20.2338 42.2418 20.3466L34.5099 28.0796C34.2784 28.3112 34.2784 28.6876 34.5099 28.9192L42.2418 36.651C42.3546 36.7638 42.5066 36.8244 42.6621 36.8244C42.7132 36.8244 42.7654 36.8172 42.8165 36.8042C43.0219 36.7496 43.1811 36.5881 43.2357 36.3838C43.3093 36.1071 43.3438 35.8661 43.3438 35.625V21.375C43.3438 21.1339 43.3093 20.8929 43.2357 20.615C43.1811 20.4096 43.0208 20.2493 42.8165 20.1946C42.7654 20.1804 42.7132 20.1733 42.6621 20.1733ZM14.3379 20.1733C14.2868 20.1733 14.2346 20.1804 14.1835 20.1934C13.9781 20.2481 13.8189 20.4096 13.7643 20.6138C13.6907 20.8929 13.6562 21.1339 13.6562 21.375V35.625C13.6562 35.8661 13.6907 36.1071 13.7643 36.385C13.8189 36.5904 13.9793 36.7507 14.1835 36.8054C14.2346 36.8196 14.2868 36.8256 14.3379 36.8256C14.4934 36.8256 14.6454 36.765 14.7583 36.6522L22.4901 28.9204C22.7216 28.6888 22.7216 28.3124 22.4901 28.0808L14.7583 20.3478C14.6454 20.235 14.4934 20.1733 14.3379 20.1733ZM33.2381 29.5735C33.0909 29.5735 32.9436 29.6281 32.8284 29.7374C31.6469 30.8607 30.1103 31.4794 28.5 31.4794C26.8898 31.4794 25.3519 30.8607 24.1716 29.7374C24.0564 29.6281 23.9091 29.5735 23.7619 29.5735C23.6099 29.5735 23.4579 29.6317 23.3415 29.7469L15.5966 37.4917C15.447 37.6414 15.3876 37.8611 15.4434 38.0653C15.4993 38.2696 15.6596 38.4299 15.8638 38.4845C16.1429 38.5593 16.3839 38.5937 16.625 38.5937H40.375C40.6161 38.5937 40.8571 38.5593 41.135 38.4857C41.3404 38.4311 41.5008 38.2707 41.5554 38.0665C41.61 37.8622 41.5518 37.6426 41.4022 37.4929L33.6573 29.7481C33.5421 29.6317 33.3901 29.5735 33.2381 29.5735Z" fill="black"/>
<path d="M42.6621 20.767L34.9291 28.5L42.6609 36.2318C42.7132 36.0371 42.75 35.8364 42.75 35.625V21.375C42.75 21.1636 42.7132 20.9629 42.6621 20.767ZM31.692 28.3801L40.983 19.0879C40.7871 19.0368 40.5864 19 40.375 19H16.625C16.4136 19 16.2129 19.0368 16.017 19.0879L25.308 28.3801C27.0691 30.1388 29.9309 30.1388 31.692 28.3801ZM14.3379 20.767C14.2868 20.9629 14.25 21.1636 14.25 21.375V35.625C14.25 35.8364 14.2868 36.0371 14.3379 36.233L22.0709 28.5L14.3379 20.767ZM28.5 32.0732C26.79 32.0732 25.0883 31.4296 23.7619 30.1673L16.017 37.9121C16.2129 37.9632 16.4136 38 16.625 38H40.375C40.5864 38 40.7871 37.9632 40.983 37.9121L33.2381 30.1673C31.9117 31.4296 30.21 32.0732 28.5 32.0732Z" fill="#F9F9F9"/>
<defs>
<linearGradient id="paint0_linear_27_13" x1="28.5" y1="49.875" x2="28.5" y2="7.37081" gradientUnits="userSpaceOnUse">
<stop stop-color="#1AC8FC"/>
<stop offset="0.258" stop-color="#1BB6FA"/>
<stop offset="0.775" stop-color="#1C86F5"/>
<stop offset="1" stop-color="#1D70F2"/>
</linearGradient>
</defs>
</svg>
