<svg width="48" height="48" viewBox="0 0 48 48" fill="none" xmlns="http://www.w3.org/2000/svg">
<path d="M24 0C10.7976 0 0 9.87408 0 22.1192C0 28.8145 3.26902 34.7582 8.34783 38.8051V48L9.88043 47.1962L17.413 43.3382C19.5163 43.8928 21.7052 44.2384 24 44.2384C37.2024 44.2384 48 34.3644 48 22.1192C48 9.87408 37.2024 0 24 0ZM24 2.0576C36.1508 2.0576 45.913 11.0677 45.913 22.1192C45.913 33.1708 36.1508 42.1808 24 42.1808C21.7418 42.1808 19.5571 41.8593 17.5109 41.2806L17.1196 41.1842L16.7609 41.3771L10.4348 44.6242V37.8727L10.0435 37.5834C5.17663 33.8902 2.08696 28.3322 2.08696 22.1192C2.08696 11.0677 11.8492 2.0576 24 2.0576ZM21.6196 16.1715L9.06522 29.2887L20.3478 23.0516L26.3804 29.4173L38.7717 16.1715L27.7826 22.2478L21.6196 16.1715Z" fill="black"/>
</svg>
