<svg width="57" height="57" viewBox="0 0 57 57" fill="none" xmlns="http://www.w3.org/2000/svg">
<path d="M28.5 4.75C22.2011 4.75 16.1602 7.25222 11.7062 11.7062C7.25222 16.1602 4.75 22.2011 4.75 28.5C4.75 34.7989 7.25222 40.8398 11.7062 45.2938C16.1602 49.7478 22.2011 52.25 28.5 52.25C34.7989 52.25 40.8398 49.7478 45.2938 45.2938C49.7478 40.8398 52.25 34.7989 52.25 28.5C52.25 22.2011 49.7478 16.1602 45.2938 11.7062C40.8398 7.25222 34.7989 4.75 28.5 4.75Z" fill="#29B6F6"/>
<path d="M40.3156 17.8125L35.8672 40.5246C35.8672 40.5246 35.6761 41.5625 34.3888 41.5625C33.7048 41.5625 33.3521 41.2371 33.3521 41.2371L23.7167 33.2417L19.0024 30.8655L12.9521 29.2564C12.9521 29.2564 11.875 28.9453 11.875 28.0547C11.875 27.3125 12.9829 26.9586 12.9829 26.9586L38.2957 16.9029C38.2957 16.9029 39.0687 16.6238 39.6328 16.625C39.9796 16.625 40.375 16.7734 40.375 17.2188C40.375 17.5156 40.3156 17.8125 40.3156 17.8125Z" fill="white"/>
<path d="M27.3125 36.2246L23.2441 40.2313C23.2441 40.2313 23.0672 40.3678 22.8309 40.3738C22.7489 40.3761 22.6611 40.3631 22.5708 40.3227L23.7156 33.2393L27.3125 36.2246Z" fill="#B0BEC5"/>
<path d="M35.5027 21.6077C35.302 21.3465 34.9315 21.299 34.6703 21.4973L19 30.875C19 30.875 21.5009 37.8717 21.8821 39.083C22.2644 40.2954 22.5708 40.3239 22.5708 40.3239L23.7156 33.2405L35.3911 22.439C35.6523 22.2407 35.701 21.869 35.5027 21.6077Z" fill="#CFD8DC"/>
</svg>
