<svg width="57" height="57" viewBox="0 0 57 57" fill="none" xmlns="http://www.w3.org/2000/svg">
<path d="M28.5 5.9375C25.3662 5.9375 15.8294 5.9375 10.5569 10.7516C7.41713 13.8795 5.9375 18.3991 5.9375 24.9375V28.5C5.9375 35.0384 7.41712 39.558 10.5937 42.7215C12.1754 44.1643 14.3319 45.3174 16.9682 46.1142L17.8125 46.3683V52.6953C17.8125 53.4375 18.0274 53.4375 18.0987 53.4375C18.2448 53.4375 18.4787 53.3912 18.9228 52.9969C19.0297 52.8913 19.8134 52.0434 23.6253 47.7731L24.0101 47.3421L24.586 47.3789C25.8626 47.4584 27.1795 47.5 28.5 47.5C31.6338 47.5 41.1706 47.5 46.4431 42.6847C49.5817 39.5568 51.0625 35.0372 51.0625 28.5V24.9375C51.0625 18.3991 49.5829 13.8795 46.4063 10.716C41.1706 5.9375 31.6338 5.9375 28.5 5.9375Z" fill="url(#paint0_linear_27_33)"/>
<path d="M39.7231 34.2641C38.4037 33.1526 37.7946 32.8166 35.9729 31.7229C35.2141 31.2681 34.0575 30.875 33.4507 30.875C33.0362 30.875 32.5399 31.1921 32.2359 31.4961C31.4569 32.2751 31.2016 33.25 29.8359 33.25C28.5 33.25 26.1666 31.8903 24.4922 30.1328C22.7347 28.4584 21.375 26.125 21.375 24.7891C21.375 23.4234 22.3321 23.1503 23.1111 22.3701C23.4151 22.0673 23.75 21.5709 23.75 21.1565C23.75 20.5497 23.3569 19.4109 22.9021 18.6521C21.8084 16.8292 21.4736 16.2201 20.3609 14.9019C19.9844 14.4554 19.5557 14.2512 19.1069 14.25C18.3481 14.2488 17.3517 14.6253 16.6772 15.1276C15.6631 15.884 14.6027 16.9136 14.3189 18.1961C14.2809 18.3706 14.2583 18.5464 14.2512 18.7221C14.1966 20.0581 14.7214 21.4142 15.2879 22.5625C16.6214 25.2688 18.3861 27.8884 20.3062 30.2278C20.9202 30.9759 21.5887 31.6718 22.2811 32.3439C22.9532 33.0351 23.6491 33.7036 24.3972 34.3187C26.7366 36.2389 29.3562 38.0036 32.0625 39.3371C33.2001 39.8976 34.5396 40.413 35.8625 40.375C36.0513 40.3691 36.2401 40.3477 36.4289 40.3061C37.7114 40.0235 38.741 38.9619 39.4974 37.9477C39.9998 37.2732 40.3762 36.2781 40.375 35.5181C40.3738 35.0692 40.1696 34.6406 39.7231 34.2641ZM40.375 28.5C39.7195 28.5 39.1875 27.968 39.1875 27.3125V26.125C39.1875 20.2326 34.3924 15.4375 28.5 15.4375C27.8445 15.4375 27.3125 14.9055 27.3125 14.25C27.3125 13.5945 27.8445 13.0625 28.5 13.0625C35.7022 13.0625 41.5625 18.9228 41.5625 26.125V27.3125C41.5625 27.968 41.0305 28.5 40.375 28.5ZM33.0814 26.125C32.5541 26.125 32.072 25.7711 31.9331 25.2368C31.6077 23.9887 30.6339 23.0138 29.3906 22.6931C28.7553 22.5281 28.3741 21.8809 28.538 21.2456C28.7019 20.6114 29.3479 20.2303 29.9856 20.3929C32.0613 20.9309 33.6882 22.5566 34.2309 24.6371C34.3959 25.2724 34.0159 25.9196 33.3818 26.0858C33.2809 26.1119 33.1799 26.125 33.0814 26.125ZM36.8125 27.3125C36.157 27.3125 35.625 26.7805 35.625 26.125C35.625 22.3393 32.6634 19.2161 28.8824 19.0166C28.2269 18.9822 27.7246 18.4229 27.759 17.7686C27.7934 17.1131 28.3622 16.6096 29.0071 16.6452C34.0504 16.9112 38 21.0758 38 26.125C38 26.7805 37.468 27.3125 36.8125 27.3125ZM28.5 4.75C23.1562 4.75 14.8295 5.24163 9.7565 9.87525C6.17025 13.4461 4.75 18.4549 4.75 24.9375C4.75 25.4742 4.74762 26.0727 4.75237 26.7188C4.74762 27.3636 4.75 27.9621 4.75 28.4988C4.75 34.9814 6.17025 39.9902 9.7565 43.5611C11.6874 45.3245 14.0956 46.4847 16.625 47.2494V52.6953C16.625 54.5906 17.8707 54.625 18.0987 54.625H18.1094C18.696 54.6226 19.2031 54.3352 19.7113 53.884C19.9025 53.7142 22.1101 51.2537 24.5112 48.5628C25.9409 48.6543 27.2994 48.6875 28.4988 48.6875C33.8426 48.6875 42.1681 48.1947 47.2423 43.5611C50.8274 39.9914 52.2488 34.9814 52.2488 28.4988C52.2488 27.9621 52.2512 27.3636 52.2464 26.7176C52.2512 26.0716 52.2488 25.4743 52.2488 24.9363C52.2488 18.4538 50.8286 13.4449 47.2423 9.87406C42.1693 5.24162 33.8437 4.75 28.5 4.75ZM48.6875 28.0856V28.4988C48.6875 34.3247 47.4466 38.2945 44.7854 40.9818C40.1755 45.125 31.3939 45.125 28.4988 45.125C27.6177 45.125 26.1879 45.1238 24.5005 45.0063C24.0314 45.5335 19 51.1611 19 51.1611V44.1988C16.5015 43.5991 14.0327 42.6158 12.2146 40.983C9.55344 38.2945 8.3125 34.3247 8.3125 28.4988V28.0856C8.3125 27.6687 8.31131 27.2187 8.31487 26.6926C8.31131 26.2176 8.31131 25.7687 8.3125 25.3507V24.9375C8.3125 19.1116 9.55344 15.1418 12.2146 12.4545C16.8233 8.31131 25.6061 8.31131 28.5 8.31131C31.3939 8.31131 40.1755 8.31131 44.7842 12.4545C47.4466 15.1418 48.6863 19.1116 48.6863 24.9375V25.3507C48.6863 25.7676 48.6875 26.2176 48.6839 26.7437C48.6875 27.2199 48.6875 27.6687 48.6875 28.0856Z" fill="url(#paint1_linear_27_33)"/>
<defs>
<linearGradient id="paint0_linear_27_33" x1="16.7568" y1="-7.09056" x2="40.5567" y2="61.4306" gradientUnits="userSpaceOnUse">
<stop stop-color="#FCFCFC"/>
<stop offset="0.495" stop-color="#F4F4F4"/>
<stop offset="0.946" stop-color="#E8E8E8"/>
<stop offset="1" stop-color="#E8E8E8"/>
</linearGradient>
<linearGradient id="paint1_linear_27_33" x1="50.597" y1="57.4714" x2="2.99488" y2="-8.62481" gradientUnits="userSpaceOnUse">
<stop stop-color="#912FBD"/>
<stop offset="1" stop-color="#9332BF"/>
</linearGradient>
</defs>
</svg>
