<svg width="48" height="48" viewBox="0 0 48 48" fill="none" xmlns="http://www.w3.org/2000/svg">
<path d="M23.4224 0C19.6261 0 10.236 0.381729 5.24086 4.97144C1.64436 8.22249 0.246502 13.1954 0.0466969 19.1238C-0.352914 28.4945 1.84338 34.4221 5.43988 37.4819C6.2391 38.0556 8.23872 39.5878 12.035 40.7352V45.5161C12.035 45.5161 12.0342 47.427 13.2331 47.8095C13.4329 47.8095 13.6342 48 13.8341 48C15.0329 48 16.0296 46.6606 17.4282 45.3219C18.627 43.9833 19.6268 43.0286 20.2263 42.0724H23.0243H24.6243C28.4206 42.0724 37.8107 41.6906 42.8058 37.1009C46.4023 33.6586 47.801 28.6842 47.801 22.3734C48.0008 21.4172 48 20.2712 48 19.1238C47.8002 12.048 45.6039 7.26779 42.6068 4.59046C41.408 3.63427 36.2115 0 25.0224 0H23.4224ZM23.0243 3.63427H24.4214H24.6243H24.8234C35.413 3.63427 39.4091 6.88606 39.8088 7.26854C42.2064 9.18092 43.6051 13.3874 43.8049 18.9333V19.699C44.0047 20.8464 44.0039 21.7996 44.0039 22.3734C43.8041 28.1105 42.6045 31.9368 40.2068 34.4228C36.0109 38.0564 27.221 38.2476 24.8234 38.2476H23.4224H23.2233H23.0243H21.0263L17.8302 41.6914L15.8321 43.7943L15.4302 44.3657C15.0305 44.7482 14.4327 45.5154 14.0331 45.7066V45.3219V37.1009C10.037 36.1447 8.43853 34.8053 8.03891 34.4228C5.24164 32.128 3.64319 26.5821 4.04281 19.1238V17.2114C4.44242 12.6217 5.64281 9.56265 7.64086 7.45903C11.8368 3.82551 20.6267 3.63427 23.0243 3.63427ZM22.8253 7.84001C21.8263 7.84001 21.8263 9.18092 22.8253 9.18092C30.2181 9.18092 36.6127 13.9604 36.6127 22.9486C36.6127 23.9048 38.0097 23.9048 38.0097 22.9486C38.0097 13.1954 31.2171 7.64877 22.8253 7.84001ZM14.9072 9.61046C14.4826 9.56265 14.0346 9.65603 13.635 9.94288C11.637 10.8991 9.63658 12.8144 10.236 14.9181C10.236 14.9181 10.6372 16.637 12.835 20.2705C14.0339 21.9916 15.0321 23.523 16.0311 24.6705C17.0302 26.0091 18.6278 27.5383 20.2263 28.6857C23.4232 31.1718 28.4206 33.6586 30.6185 34.2324C32.6165 34.8061 34.8136 32.8914 35.8126 30.9791C36.2123 30.2141 36.0109 29.2594 35.2117 28.6857C34.0128 27.5383 32.0171 26.2011 30.6185 25.4362C29.6195 24.8624 28.4191 25.2434 28.0195 25.8171L27.0204 26.9638C26.6208 27.5375 25.6234 27.539 25.6234 27.539C19.0298 25.8179 17.2292 19.3143 17.2292 19.3143C17.2292 19.3143 17.2307 18.5508 17.8302 17.9771L19.0282 17.0209C19.6276 16.6385 20.0257 15.4895 19.4263 14.5333C19.0267 13.9596 18.4296 12.8137 17.8302 12.24C17.2307 11.475 16.0311 10.1371 16.0311 10.1371C15.7314 9.85025 15.3318 9.65827 14.9072 9.61046ZM24.2224 11.6648C23.2233 11.4735 23.0243 13.0057 24.0233 13.0057C29.6179 13.3882 32.8163 17.0217 32.6165 21.6114C32.4167 22.5676 34.0136 22.5676 34.0136 21.6114C34.2134 16.2567 30.6161 11.856 24.2224 11.6648ZM24.8234 15.299C23.8243 15.1078 23.8243 16.6362 24.8234 16.6362C27.221 16.6362 28.4175 17.9756 28.4175 20.2705C28.6173 21.2267 30.0175 21.2267 30.0175 20.2705C29.8177 17.2107 28.0202 15.299 24.8234 15.299Z" fill="black"/>
</svg>
