<svg width="57" height="57" viewBox="0 0 57 57" fill="none" xmlns="http://www.w3.org/2000/svg">
<path d="M5.78075 51.4223L8.97987 39.7432C7.00625 36.3256 5.96837 32.4473 5.96956 28.4751C5.9755 16.0479 16.0882 5.9375 28.5166 5.9375C34.5479 5.93988 40.2076 8.28756 44.4647 12.5471C48.7207 16.8079 51.0649 22.4699 51.0625 28.4929C51.0577 40.9201 40.9426 51.0316 28.5166 51.0316H28.5071C24.7344 51.0304 21.0259 50.084 17.7329 48.2873L5.78075 51.4223Z" fill="white"/>
<path d="M5.78075 52.0161C5.624 52.0161 5.472 51.9543 5.35918 51.8403C5.21075 51.6895 5.15256 51.4698 5.20837 51.2668L8.34218 39.824C6.39943 36.3731 5.37462 32.4544 5.377 28.4762C5.38175 15.7201 15.7617 5.34375 28.5166 5.34375C34.7035 5.34613 40.5163 7.75556 44.8851 12.1279C49.2539 16.5015 51.6586 22.3131 51.6562 28.4929C51.6515 41.2478 41.2704 51.6254 28.5166 51.6254C24.7297 51.6242 20.9831 50.6896 17.6581 48.9214L5.93156 51.9959C5.88168 52.0101 5.83181 52.0161 5.78075 52.0161Z" fill="white"/>
<path d="M28.5166 5.9375C34.5479 5.93988 40.2076 8.28756 44.4647 12.5471C48.7207 16.8079 51.0649 22.4699 51.0625 28.4929C51.0577 40.9201 40.9426 51.0316 28.5166 51.0316H28.5071C24.7344 51.0304 21.0259 50.084 17.7329 48.2873L5.78075 51.4223L8.97987 39.7432C7.00625 36.3256 5.96837 32.4473 5.96956 28.4751C5.9755 16.0479 16.0882 5.9375 28.5166 5.9375ZM28.5166 4.75C15.4351 4.75 4.788 15.3924 4.78206 28.4751C4.78087 32.4734 5.79025 36.4135 7.7045 39.9012L4.63481 51.11C4.52318 51.5197 4.63718 51.9567 4.93643 52.2583C5.16206 52.4863 5.46725 52.611 5.78075 52.611C5.88168 52.611 5.98262 52.5979 6.08237 52.5718L17.5857 49.5556C20.9439 51.2988 24.7083 52.2191 28.5071 52.2203C41.5981 52.2203 52.2452 41.5768 52.2512 28.4941C52.2536 22.154 49.7871 16.1927 45.3067 11.7087C40.8239 7.22356 34.8614 4.75238 28.5166 4.75Z" fill="#CFD8DC"/>
<path d="M41.7715 15.238C38.2327 11.6969 33.5291 9.74582 28.5226 9.74463C18.1866 9.74463 9.78025 18.1474 9.7755 28.4763C9.77431 32.0162 10.7647 35.4623 12.6409 38.4465L13.0874 39.1554L11.1934 46.0679L18.2863 44.2083L18.9715 44.6144C21.8476 46.322 25.1465 47.2245 28.5095 47.2257H28.5166C38.8455 47.2257 47.2518 38.8218 47.2554 28.4917C47.2566 23.4864 45.3102 18.7791 41.7715 15.238Z" fill="#40C351"/>
<path fill-rule="evenodd" clip-rule="evenodd" d="M22.8808 19.0535C22.4592 18.1154 22.0151 18.0964 21.6125 18.0797C21.2836 18.0655 20.9083 18.0667 20.5331 18.0667C20.1578 18.0667 19.5474 18.208 19.0309 18.772C18.5143 19.3361 17.0584 20.6982 17.0584 23.4698C17.0584 26.2414 19.0772 28.9204 19.3586 29.2957C19.6401 29.6709 23.256 35.5407 28.9821 37.7994C33.7404 39.6756 34.7094 39.3027 35.7426 39.2089C36.7757 39.1151 39.0759 37.8469 39.5449 36.5311C40.014 35.2154 40.014 34.0884 39.8739 33.8533C39.7326 33.6182 39.3573 33.4781 38.7944 33.1954C38.2316 32.9128 35.4611 31.5507 34.9446 31.3631C34.428 31.1755 34.0528 31.0817 33.6763 31.6457C33.3011 32.2086 32.2216 33.478 31.8927 33.8533C31.5638 34.2297 31.2348 34.2772 30.6719 33.9946C30.1091 33.712 28.2946 33.1182 26.1416 31.1992C24.4673 29.7066 23.3368 27.8624 23.0078 27.2983C22.6789 26.7354 22.9722 26.4302 23.2548 26.1488C23.5078 25.8959 23.8177 25.4909 24.1003 25.162C24.3818 24.833 24.4756 24.5979 24.6632 24.2227C24.8508 23.8462 24.757 23.5173 24.6157 23.2359C24.4768 22.9532 23.3819 20.1674 22.8808 19.0535Z" fill="white"/>
</svg>
