<svg width="48" height="48" viewBox="0 0 48 48" fill="none" xmlns="http://www.w3.org/2000/svg">
<path fill-rule="evenodd" clip-rule="evenodd" d="M41.0078 6.97602C36.4922 2.48088 30.4922 0 24.1016 0C10.9297 0 0.203126 10.6701 0.203126 23.7822C0.195312 27.9741 1.29688 32.0648 3.39063 35.6734L0 48L12.6719 44.687C16.1563 46.5846 20.0938 47.58 24.0938 47.5878H24.1016C37.2734 47.5878 47.9922 36.9177 48 23.7978C48 17.4439 45.5156 11.4712 41.0078 6.97602ZM24.1016 43.5671H24.0938C20.5312 43.5671 17.0313 42.6105 13.9844 40.814L13.2578 40.3863L5.73438 42.3461L7.74219 35.0512L7.27344 34.3046C5.28125 31.1549 4.23438 27.5152 4.23438 23.7822C4.23438 12.8866 13.1484 4.02074 24.1094 4.02074C29.4141 4.02074 34.3984 6.08166 38.1484 9.81465C41.8984 13.5554 43.9609 18.5172 43.9609 23.7978C43.9609 34.7012 35.0469 43.5671 24.1016 43.5671ZM34.9922 28.7596C34.3984 28.464 31.4609 27.0253 30.9141 26.8308C30.3672 26.6286 29.9688 26.5353 29.5703 27.1264C29.1719 27.7252 28.0312 29.0629 27.6797 29.4595C27.3359 29.8483 26.9844 29.9028 26.3906 29.6073C25.7891 29.3117 23.8672 28.6818 21.5859 26.652C19.8125 25.081 18.6094 23.129 18.2656 22.5379C17.9141 21.9391 18.2266 21.6202 18.5234 21.3247C18.7969 21.0603 19.125 20.6325 19.4219 20.2826C19.7188 19.9404 19.8203 19.6915 20.0234 19.2949C20.2187 18.8983 20.1172 18.5483 19.9688 18.2528C19.8203 17.9572 18.625 15.0253 18.125 13.8354C17.6406 12.6766 17.1484 12.8399 16.7812 12.8166C16.4375 12.801 16.0391 12.801 15.6406 12.801C15.2422 12.801 14.5938 12.9488 14.0469 13.5476C13.5 14.1387 11.9609 15.5774 11.9609 18.5016C11.9609 21.4258 14.1016 24.2566 14.3984 24.6533C14.6953 25.0421 18.6094 31.046 24.6016 33.6202C26.0234 34.2346 27.1328 34.6001 28 34.8723C29.4297 35.3234 30.7344 35.2612 31.7656 35.1134C32.9141 34.9423 35.2969 33.6747 35.7969 32.2826C36.2891 30.8982 36.2891 29.7084 36.1406 29.4595C35.9922 29.2106 35.5937 29.0629 34.9922 28.7596Z" fill="black"/>
</svg>
